<svg id="svg" version="1.1" xmlns="http://www.w3.org/2000/svg" xmlns:xlink="http://www.w3.org/1999/xlink" width="400" height="401.2610340479193" viewBox="0, 0, 400,401.2610340479193"><g id="svgg"><path id="path0" d="M245.145 60.151 L 245.145 115.259 313.109 115.259 L 381.072 115.259 380.828 114.616 C 378.795 109.271,370.019 94.219,363.248 84.466 C 355.885 73.860,343.795 60.245,333.922 51.443 C 332.604 50.268,331.469 49.250,331.400 49.180 C 330.812 48.593,327.344 45.723,324.338 43.337 C 309.178 31.305,293.187 21.980,274.522 14.287 C 269.086 12.047,259.662 8.863,253.194 7.081 C 251.520 6.620,245.379 5.056,245.208 5.047 C 245.173 5.046,245.145 29.842,245.145 60.151 M245.145 199.622 L 245.145 248.676 319.755 248.676 L 394.364 248.676 394.928 246.091 C 395.238 244.669,395.713 242.484,395.985 241.236 C 400.846 218.846,401.349 191.457,397.339 167.465 C 396.506 162.482,394.394 152.373,393.932 151.158 L 393.707 150.567 319.426 150.567 L 245.145 150.567 245.145 199.622 M245.145 340.232 L 245.145 396.227 245.839 396.062 C 251.130 394.806,258.388 392.753,262.799 391.265 C 267.405 389.712,274.362 387.102,276.797 386.013 C 277.213 385.827,278.689 385.200,280.076 384.619 C 288.200 381.216,299.516 375.107,308.953 369.028 C 314.892 365.203,324.721 357.898,329.017 354.116 C 329.580 353.621,330.431 352.884,330.909 352.479 C 336.966 347.349,343.152 341.162,351.229 332.156 C 356.607 326.160,363.962 316.146,370.123 306.431 C 373.063 301.795,381.841 285.316,381.841 284.432 C 381.841 284.325,351.084 284.237,313.493 284.237 L 245.145 284.237 245.145 340.232 " stroke="none" fill="#fcb33c" fill-rule="evenodd"></path><path id="path1" d="M188.020 0.172 C 180.768 0.641,174.407 1.321,168.159 2.296 L 164.691 2.837 164.691 200.629 L 164.691 398.421 168.159 398.975 C 187.738 402.101,210.646 402.046,230.706 398.825 L 234.805 398.166 234.805 200.635 L 234.805 3.103 231.463 2.557 C 218.173 0.386,200.083 -0.607,188.020 0.172 " stroke="none" fill="#fb941c" fill-rule="evenodd"></path><path id="path2" d="M151.576 5.831 C 87.978 22.270,37.716 66.411,13.951 126.698 C -28.769 235.070,29.204 357.181,139.975 392.148 C 144.610 393.611,153.311 395.965,154.084 395.965 C 154.272 395.965,154.333 379.899,154.288 341.962 L 154.224 287.959 151.198 287.126 C 104.424 274.243,75.978 227.343,86.269 180.076 C 93.426 147.205,118.537 120.787,151.082 111.891 L 154.224 111.032 154.288 58.164 C 154.349 7.923,154.330 5.297,153.910 5.319 C 153.667 5.332,152.617 5.562,151.576 5.831 " stroke="none" fill="#f47c1c" fill-rule="evenodd"></path><path id="path3" d="" stroke="none" fill="#f89c34" fill-rule="evenodd"></path><path id="path4" d="" stroke="none" fill="#f88434" fill-rule="evenodd"></path></g></svg>