<?xml version="1.0" standalone="no"?>
<!DOCTYPE svg PUBLIC "-//W3C//DTD SVG 20010904//EN"
 "http://www.w3.org/TR/2001/REC-SVG-20010904/DTD/svg10.dtd">
<svg version="1.0" xmlns="http://www.w3.org/2000/svg"
 width="196.000000pt" height="156.000000pt" viewBox="0 0 196.000000 156.000000"
 preserveAspectRatio="xMidYMid meet">

<g transform="translate(0.000000,156.000000) scale(0.100000,-0.100000)"
fill="#000000" stroke="none">
<path d="M742 1127 c-45 -48 -11 -127 55 -127 32 0 73 42 73 75 0 35 -42 75
-78 75 -17 0 -37 -9 -50 -23z"/>
<path d="M382 1093 c-27 -24 -332 -610 -332 -638 0 -13 9 -33 19 -46 19 -24
20 -24 266 -27 l247 -3 -7 23 c-23 81 -77 108 -212 108 -57 0 -103 3 -103 8 1
18 176 337 185 336 5 -1 69 -98 142 -215 73 -118 143 -222 154 -231 12 -10 32
-18 46 -18 28 0 79 24 85 40 2 6 21 -3 43 -19 44 -32 130 -61 181 -61 54 0
150 36 206 76 46 34 362 279 455 353 49 39 45 71 -14 116 -84 64 -182 80 -276
45 -120 -45 -191 -146 -206 -294 -12 -122 -60 -176 -156 -176 -179 1 -259 230
-118 337 34 26 44 28 127 29 50 0 97 2 104 2 18 3 52 40 52 57 0 24 -79 58
-150 62 -73 6 -160 -20 -207 -62 l-27 -22 -15 31 c-22 44 -62 61 -106 46 -46
-15 -55 -35 -55 -116 0 -84 2 -85 -110 96 -46 74 -94 145 -107 158 -29 27 -82
29 -111 5z m1243 -263 c3 -5 -49 -50 -117 -100 -111 -82 -123 -89 -126 -69 -2
12 4 41 12 64 28 73 90 114 173 115 28 0 55 -4 58 -10z"/>
<path d="M1681 499 c-65 -35 -109 -37 -176 -5 l-51 23 -47 -43 -48 -43 23 -15
c91 -60 210 -80 297 -51 52 17 151 87 151 106 0 19 -49 59 -72 58 -13 0 -47
-14 -77 -30z"/>
</g>
</svg>
